<svg width="32" height="32" viewBox="0 0 32 32" fill="none" xmlns="http://www.w3.org/2000/svg">
<path d="M27 0H5C3.4 0 2 1.4 2 3V29C2 30.6 3.4 32 5 32H27C28.6 32 30 30.6 30 29V3C30 1.4 28.6 0 27 0ZM10 27.2C10 27.6 9.6 28 9.2 28H6.8C6.4 28 6 27.6 6 27.2V24.8C6 24.4 6.4 24 6.8 24H9.2C9.6 24 10 24.4 10 24.8V27.2ZM10 19.2C10 19.6 9.6 20 9.2 20H6.8C6.4 20 6 19.6 6 19.2V16.8C6 16.4 6.4 16 6.8 16H9.2C9.6 16 10 16.4 10 16.8V19.2ZM18 27.2C18 27.6 17.6 28 17.2 28H14.8C14.4 28 14 27.6 14 27.2V24.8C14 24.4 14.4 24 14.8 24H17.2C17.6 24 18 24.4 18 24.8V27.2ZM18 19.2C18 19.6 17.6 20 17.2 20H14.8C14.4 20 14 19.6 14 19.2V16.8C14 16.4 14.4 16 14.8 16H17.2C17.6 16 18 16.4 18 16.8V19.2ZM26 27.2C26 27.6 25.6 28 25.2 28H22.8C22.4 28 22 27.6 22 27.2V16.8C22 16.4 22.4 16 22.8 16H25.2C25.6 16 26 16.4 26 16.8V27.2ZM26 11.2C26 11.6 25.6 12 25.2 12H6.8C6.4 12 6 11.6 6 11.2V4.8C6 4.4 6.4 4 6.8 4H25.2C25.6 4 26 4.4 26 4.8V11.2Z" fill="#3B82F6"/>
</svg>
