<svg width="100" height="100" viewBox="0 0 100 100" fill="none" xmlns="http://www.w3.org/2000/svg">
<g clip-path="url(#clip0_12_30)">
<path d="M100 0H0V100H100V0Z" fill="#DDDDDD"/>
<path d="M23.32 53.77H25.14V55.06H19.54V53.77H21.59V47.86C21.59 47.6267 21.5967 47.3867 21.61 47.14L20.16 48.36C20.0733 48.4267 19.99 48.4667 19.91 48.48C19.83 48.5 19.7533 48.5033 19.68 48.49C19.6067 48.4767 19.5433 48.45 19.49 48.41C19.43 48.3767 19.3867 48.34 19.36 48.3L18.81 47.55L21.9 44.92H23.32V53.77ZM33.79 50C33.79 50.88 33.6933 51.6467 33.5 52.3C33.3133 52.9467 33.0533 53.4833 32.72 53.91C32.3867 54.3367 31.9933 54.6533 31.54 54.86C31.08 55.0667 30.5867 55.17 30.06 55.17C29.5333 55.17 29.0467 55.0667 28.6 54.86C28.1467 54.6533 27.7533 54.3367 27.42 53.91C27.0933 53.4833 26.8367 52.9467 26.65 52.3C26.4633 51.6467 26.37 50.88 26.37 50C26.37 49.1133 26.4633 48.3467 26.65 47.7C26.8367 47.0467 27.0933 46.51 27.42 46.09C27.7533 45.6633 28.1467 45.3467 28.6 45.14C29.0467 44.9333 29.5333 44.83 30.06 44.83C30.5867 44.83 31.08 44.9333 31.54 45.14C31.9933 45.3467 32.3867 45.6633 32.72 46.09C33.0533 46.51 33.3133 47.0467 33.5 47.7C33.6933 48.3467 33.79 49.1133 33.79 50ZM32 50C32 49.2667 31.9467 48.66 31.84 48.18C31.7333 47.7 31.59 47.3167 31.41 47.03C31.23 46.7433 31.0233 46.5433 30.79 46.43C30.5567 46.3167 30.3133 46.26 30.06 46.26C29.8133 46.26 29.5767 46.3167 29.35 46.43C29.1167 46.5433 28.91 46.7433 28.73 47.03C28.5567 47.3167 28.4167 47.7 28.31 48.18C28.2033 48.66 28.15 49.2667 28.15 50C28.15 50.7333 28.2033 51.34 28.31 51.82C28.4167 52.3 28.5567 52.6833 28.73 52.97C28.91 53.25 29.1167 53.45 29.35 53.57C29.5767 53.6833 29.8133 53.74 30.06 53.74C30.3133 53.74 30.5567 53.6833 30.79 53.57C31.0233 53.45 31.23 53.25 31.41 52.97C31.59 52.6833 31.7333 52.3 31.84 51.82C31.9467 51.34 32 50.7333 32 50ZM41.91 50C41.91 50.88 41.8133 51.6467 41.62 52.3C41.4333 52.9467 41.1733 53.4833 40.84 53.91C40.5067 54.3367 40.1133 54.6533 39.66 54.86C39.2 55.0667 38.7067 55.17 38.18 55.17C37.6533 55.17 37.1667 55.0667 36.72 54.86C36.2667 54.6533 35.8733 54.3367 35.54 53.91C35.2133 53.4833 34.9567 52.9467 34.77 52.3C34.5833 51.6467 34.49 50.88 34.49 50C34.49 49.1133 34.5833 48.3467 34.77 47.7C34.9567 47.0467 35.2133 46.51 35.54 46.09C35.8733 45.6633 36.2667 45.3467 36.72 45.14C37.1667 44.9333 37.6533 44.83 38.18 44.83C38.7067 44.83 39.2 44.9333 39.66 45.14C40.1133 45.3467 40.5067 45.6633 40.84 46.09C41.1733 46.51 41.4333 47.0467 41.62 47.7C41.8133 48.3467 41.91 49.1133 41.91 50ZM40.12 50C40.12 49.2667 40.0667 48.66 39.96 48.18C39.8533 47.7 39.71 47.3167 39.53 47.03C39.35 46.7433 39.1433 46.5433 38.91 46.43C38.6767 46.3167 38.4333 46.26 38.18 46.26C37.9333 46.26 37.6967 46.3167 37.47 46.43C37.2367 46.5433 37.03 46.7433 36.85 47.03C36.6767 47.3167 36.5367 47.7 36.43 48.18C36.3233 48.66 36.27 49.2667 36.27 50C36.27 50.7333 36.3233 51.34 36.43 51.82C36.5367 52.3 36.6767 52.6833 36.85 52.97C37.03 53.25 37.2367 53.45 37.47 53.57C37.6967 53.6833 37.9333 53.74 38.18 53.74C38.4333 53.74 38.6767 53.6833 38.91 53.57C39.1433 53.45 39.35 53.25 39.53 52.97C39.71 52.6833 39.8533 52.3 39.96 51.82C40.0667 51.34 40.12 50.7333 40.12 50ZM53.02 52.74L52.11 53.65L49.73 51.27L47.34 53.66L46.42 52.76L48.82 50.36L46.53 48.07L47.44 47.16L49.73 49.45L51.99 47.18L52.92 48.09L50.64 50.36L53.02 52.74ZM62.61 53.77H64.43V55.06H58.83V53.77H60.88V47.86C60.88 47.6267 60.8867 47.3867 60.9 47.14L59.44 48.36C59.36 48.4267 59.2767 48.4667 59.19 48.48C59.11 48.5 59.0333 48.5033 58.96 48.49C58.8867 48.4767 58.8233 48.45 58.77 48.41C58.7167 48.3767 58.6733 48.34 58.64 48.3L58.1 47.55L61.19 44.92H62.61V53.77ZM73.07 50C73.07 50.88 72.9767 51.6467 72.79 52.3C72.5967 52.9467 72.3333 53.4833 72 53.91C71.6667 54.3367 71.2733 54.6533 70.82 54.86C70.3667 55.0667 69.8767 55.17 69.35 55.17C68.8233 55.17 68.3333 55.0667 67.88 54.86C67.4333 54.6533 67.0433 54.3367 66.71 53.91C66.3767 53.4833 66.1167 52.9467 65.93 52.3C65.7433 51.6467 65.65 50.88 65.65 50C65.65 49.1133 65.7433 48.3467 65.93 47.7C66.1167 47.0467 66.3767 46.51 66.71 46.09C67.0433 45.6633 67.4333 45.3467 67.88 45.14C68.3333 44.9333 68.8233 44.83 69.35 44.83C69.8767 44.83 70.3667 44.9333 70.82 45.14C71.2733 45.3467 71.6667 45.6633 72 46.09C72.3333 46.51 72.5967 47.0467 72.79 47.7C72.9767 48.3467 73.07 49.1133 73.07 50ZM71.29 50C71.29 49.2667 71.2367 48.66 71.13 48.18C71.0167 47.7 70.8733 47.3167 70.7 47.03C70.52 46.7433 70.3133 46.5433 70.08 46.43C69.8467 46.3167 69.6033 46.26 69.35 46.26C69.1033 46.26 68.8633 46.3167 68.63 46.43C68.3967 46.5433 68.1933 46.7433 68.02 47.03C67.84 47.3167 67.6967 47.7 67.59 48.18C67.49 48.66 67.44 49.2667 67.44 50C67.44 50.7333 67.49 51.34 67.59 51.82C67.6967 52.3 67.84 52.6833 68.02 52.97C68.1933 53.25 68.3967 53.45 68.63 53.57C68.8633 53.6833 69.1033 53.74 69.35 53.74C69.6033 53.74 69.8467 53.6833 70.08 53.57C70.3133 53.45 70.52 53.25 70.7 52.97C70.8733 52.6833 71.0167 52.3 71.13 51.82C71.2367 51.34 71.29 50.7333 71.29 50ZM81.19 50C81.19 50.88 81.0967 51.6467 80.91 52.3C80.7167 52.9467 80.4533 53.4833 80.12 53.91C79.7867 54.3367 79.3933 54.6533 78.94 54.86C78.4867 55.0667 77.9967 55.17 77.47 55.17C76.9433 55.17 76.4533 55.0667 76 54.86C75.5533 54.6533 75.1633 54.3367 74.83 53.91C74.4967 53.4833 74.2367 52.9467 74.05 52.3C73.8633 51.6467 73.77 50.88 73.77 50C73.77 49.1133 73.8633 48.3467 74.05 47.7C74.2367 47.0467 74.4967 46.51 74.83 46.09C75.1633 45.6633 75.5533 45.3467 76 45.14C76.4533 44.9333 76.9433 44.83 77.47 44.83C77.9967 44.83 78.4867 44.9333 78.94 45.14C79.3933 45.3467 79.7867 45.6633 80.12 46.09C80.4533 46.51 80.7167 47.0467 80.91 47.7C81.0967 48.3467 81.19 49.1133 81.19 50ZM79.41 50C79.41 49.2667 79.3567 48.66 79.25 48.18C79.1367 47.7 78.9933 47.3167 78.82 47.03C78.64 46.7433 78.4333 46.5433 78.2 46.43C77.9667 46.3167 77.7233 46.26 77.47 46.26C77.2233 46.26 76.9833 46.3167 76.75 46.43C76.5167 46.5433 76.3133 46.7433 76.14 47.03C75.96 47.3167 75.8167 47.7 75.71 48.18C75.61 48.66 75.56 49.2667 75.56 50C75.56 50.7333 75.61 51.34 75.71 51.82C75.8167 52.3 75.96 52.6833 76.14 52.97C76.3133 53.25 76.5167 53.45 76.75 53.57C76.9833 53.6833 77.2233 53.74 77.47 53.74C77.7233 53.74 77.9667 53.6833 78.2 53.57C78.4333 53.45 78.64 53.25 78.82 52.97C78.9933 52.6833 79.1367 52.3 79.25 51.82C79.3567 51.34 79.41 50.7333 79.41 50Z" fill="#999999"/>
</g>
<defs>
<clipPath id="clip0_12_30">
<rect width="100" height="100" fill="white"/>
</clipPath>
</defs>
</svg>
