<svg width="32" height="32" viewBox="0 0 32 32" fill="none" xmlns="http://www.w3.org/2000/svg">
<g clip-path="url(#clip0_12_68)">
<path d="M20.0125 15.2375L16.9063 21.45C16.5313 22.2062 15.4438 22.1812 15.1 21.4125L11.5438 13.5187L9.66876 18H3.78751L15.1938 29.6562C15.6375 30.1125 16.3563 30.1125 16.8 29.6562L28.2125 18H21.3938L20.0125 15.2375ZM29.6063 4.61875L29.4563 4.4625C26.2375 1.175 20.9688 1.175 17.7438 4.4625L16 6.25L14.2563 4.46875C11.0375 1.175 5.76251 1.175 2.54376 4.46875L2.39376 4.61875C-0.649987 7.73125 -0.781237 12.6875 1.93751 16H8.33751L10.5813 10.6125C10.9188 9.80625 12.0563 9.7875 12.4188 10.5875L16.0563 18.6687L19.1188 12.55C19.4875 11.8125 20.5375 11.8125 20.9063 12.55L22.6313 16H30.0625C32.7813 12.6875 32.65 7.73125 29.6063 4.61875Z" fill="#EF4444"/>
</g>
<defs>
<clipPath id="clip0_12_68">
<rect width="32" height="32" fill="white"/>
</clipPath>
</defs>
</svg>
