<svg width="32" height="32" viewBox="0 0 32 32" fill="none" xmlns="http://www.w3.org/2000/svg">
<path d="M23.9281 8.0625C25.5512 8.35438 26.8825 9.22938 27.9231 10.6875C28.8387 11.9794 29.4631 13.6044 29.7956 15.5625C30.0875 17.3544 30.0656 19.1456 29.7331 20.9375C29.2337 23.8956 28.235 26.375 26.7369 28.375C24.9469 30.7919 22.7 32 19.995 32C19.3287 32 18.6012 31.7919 17.81 31.375C17.2687 31.0419 16.6656 30.875 15.9994 30.875C15.3331 30.875 14.7306 31.0419 14.1887 31.375C13.3975 31.7919 12.67 32 12.0037 32C9.29873 32 7.05185 30.7919 5.26185 28.375C3.76373 26.375 2.76498 23.8956 2.2656 20.9375C1.9331 19.1456 1.91123 17.3544 2.2031 15.5625C2.5356 13.6044 3.15998 11.9794 4.0756 10.6875C5.11623 9.22938 6.44748 8.35438 8.0706 8.0625C9.06935 7.89562 10.4425 8.04188 12.1906 8.5C13.6887 8.91688 14.9581 9.41688 15.9987 10C17.0394 9.41688 18.3087 8.91688 19.8069 8.5C21.5556 8.04188 22.9294 7.89562 23.9281 8.0625ZM20.4944 5.5C19.9119 6.04188 19.1412 6.4375 18.1844 6.6875C17.5181 6.89562 16.7906 7 15.9994 7L15.0631 6.9375C14.98 6.35438 14.98 5.6875 15.0631 4.9375C15.23 3.4375 15.7081 2.29188 16.4987 1.5C17.0812 0.958125 17.8519 0.5625 18.8087 0.3125C19.475 0.104375 20.2025 0 20.9937 0L21.93 0.0625L21.9925 1C21.9925 1.79188 21.8881 2.52062 21.6806 3.1875C21.4312 4.14562 21.0362 4.91688 20.4944 5.5Z" fill="#22C55E"/>
</svg>
